<svg width="31" height="31" viewBox="0 0 31 31" fill="none" xmlns="http://www.w3.org/2000/svg">
<circle cx="15.3636" cy="15.3638" r="15" fill="#F0F2F5"/>
<path fill-rule="evenodd" clip-rule="evenodd" d="M11.7873 5.22477C12.8771 5.1747 13.2246 5.16357 16.0009 5.16357C18.7771 5.16357 19.1246 5.17563 20.2135 5.22477C21.3025 5.27392 22.0458 5.44732 22.6961 5.69861C23.3772 5.95547 23.9951 6.35697 24.5061 6.87625C25.0264 7.38532 25.4278 8.00103 25.6842 8.68165C25.9369 9.33074 26.1098 10.0726 26.1599 11.1575C26.2101 12.247 26.2213 12.5938 26.2213 15.3636C26.2213 18.1343 26.2092 18.4811 26.1599 19.5688C26.1107 20.6537 25.9369 21.3955 25.6842 22.0446C25.4278 22.7253 25.0257 23.342 24.5061 23.8518C23.9951 24.3711 23.3772 24.7717 22.6961 25.0276C22.0458 25.2798 21.3025 25.4523 20.2154 25.5024C19.1246 25.5524 18.7771 25.5636 16.0009 25.5636C13.2246 25.5636 12.8771 25.5515 11.7873 25.5024C10.7002 25.4532 9.95688 25.2798 9.30649 25.0276C8.62444 24.7717 8.00648 24.3704 7.49562 23.8518C6.97567 23.3424 6.57329 22.726 6.31656 22.0455C6.06477 21.3964 5.89195 20.6546 5.84178 19.5697C5.79161 18.4801 5.78046 18.1333 5.78046 15.3636C5.78046 12.5929 5.79254 12.2461 5.84178 11.1593C5.89102 10.0726 6.06477 9.33074 6.31656 8.68165C6.57367 8.0011 6.97635 7.38468 7.49655 6.87532C8.00668 6.35651 8.62402 5.95495 9.30556 5.69861C9.95595 5.44732 10.6993 5.27485 11.7863 5.22477H11.7873ZM20.1308 7.06077C19.053 7.01163 18.7297 7.00143 16.0009 7.00143C13.272 7.00143 12.9487 7.01163 11.8709 7.06077C10.8739 7.10621 10.3332 7.27219 9.97268 7.41221C9.49604 7.59767 9.15505 7.81743 8.79733 8.17443C8.45824 8.50366 8.19728 8.90445 8.03359 9.34743C7.89329 9.70721 7.72698 10.2469 7.68145 11.2418C7.63221 12.3175 7.62199 12.6402 7.62199 15.3636C7.62199 18.087 7.63221 18.4097 7.68145 19.4853C7.72698 20.4803 7.89329 21.0199 8.03359 21.3797C8.19712 21.822 8.4582 22.2235 8.79733 22.5527C9.12717 22.8912 9.52948 23.1517 9.97268 23.3149C10.3332 23.455 10.8739 23.6209 11.8709 23.6664C12.9487 23.7155 13.2711 23.7257 16.0009 23.7257C18.7306 23.7257 19.053 23.7155 20.1308 23.6664C21.1278 23.6209 21.6685 23.455 22.029 23.3149C22.5057 23.1295 22.8467 22.9097 23.2044 22.5527C23.5435 22.2235 23.8046 21.822 23.9681 21.3797C24.1084 21.0199 24.2747 20.4803 24.3203 19.4853C24.3695 18.4097 24.3797 18.087 24.3797 15.3636C24.3797 12.6402 24.3695 12.3175 24.3203 11.2418C24.2747 10.2469 24.1084 9.70721 23.9681 9.34743C23.7823 8.87174 23.5621 8.53143 23.2044 8.17443C22.8745 7.83604 22.4729 7.57561 22.029 7.41221C21.6685 7.27219 21.1278 7.10621 20.1308 7.06077ZM14.6954 18.508C15.4245 18.8108 16.2363 18.8517 16.9922 18.6236C17.7481 18.3955 18.4012 17.9126 18.8399 17.2573C19.2787 16.602 19.4758 15.815 19.3978 15.0308C19.3197 14.2465 18.9713 13.5136 18.4119 12.9573C18.0554 12.6017 17.6242 12.3294 17.1496 12.16C16.6749 11.9906 16.1685 11.9284 15.6668 11.9777C15.1652 12.0271 14.6807 12.1869 14.2483 12.4456C13.816 12.7042 13.4464 13.0554 13.1664 13.4737C12.8863 13.892 12.7026 14.367 12.6286 14.8647C12.5546 15.3623 12.592 15.8701 12.7383 16.3516C12.8845 16.8331 13.1359 17.2762 13.4743 17.649C13.8127 18.0219 14.2298 18.3153 14.6954 18.508ZM12.2862 11.6563C12.774 11.1695 13.3531 10.7833 13.9905 10.5198C14.6279 10.2564 15.311 10.1207 16.0009 10.1207C16.6907 10.1207 17.3738 10.2564 18.0112 10.5198C18.6486 10.7833 19.2277 11.1695 19.7155 11.6563C20.2033 12.1432 20.5903 12.7211 20.8543 13.3572C21.1183 13.9933 21.2542 14.6751 21.2542 15.3636C21.2542 16.0521 21.1183 16.7338 20.8543 17.3699C20.5903 18.006 20.2033 18.584 19.7155 19.0708C18.7303 20.054 17.3941 20.6064 16.0009 20.6064C14.6076 20.6064 13.2714 20.054 12.2862 19.0708C11.301 18.0876 10.7475 16.7541 10.7475 15.3636C10.7475 13.9731 11.301 12.6396 12.2862 11.6563ZM22.4193 10.9015C22.5401 10.7877 22.6369 10.6509 22.7039 10.4991C22.7708 10.3473 22.8065 10.1836 22.809 10.0178C22.8114 9.85195 22.7804 9.68732 22.718 9.53363C22.6555 9.37995 22.5627 9.24034 22.4452 9.12306C22.3277 9.00579 22.1878 8.91324 22.0339 8.85089C21.8799 8.78854 21.7149 8.75766 21.5487 8.76008C21.3826 8.7625 21.2186 8.79816 21.0665 8.86497C20.9144 8.93177 20.7772 9.02835 20.6632 9.14899C20.4414 9.38362 20.32 9.69527 20.3247 10.0178C20.3294 10.3403 20.4599 10.6483 20.6884 10.8764C20.917 11.1044 21.2256 11.2346 21.5487 11.2393C21.8719 11.244 22.1842 11.1229 22.4193 10.9015Z" fill="#1E252B"/>
</svg>
