<svg width="652" height="523" viewBox="0 0 652 523" fill="none" xmlns="http://www.w3.org/2000/svg">
<g id="logo_wa_gradient">
<g id="Group">
<path id="Vector" d="M608.545 6.0835C582.218 -4.89182 559.72 4.17476 552.539 7.99226C508.501 29.9429 494.14 82.9107 474.515 123.472C467.813 137.31 461.111 153.057 452.495 167.373C439.571 187.892 421.381 204.594 388.831 206.502C338.569 208.411 310.806 126.335 290.223 70.981C279.213 41.3954 267.725 34.2376 249.535 34.2376C235.174 34.2376 223.686 42.827 219.857 46.6445C190.178 74.7985 176.775 192.187 140.874 200.299C110.239 206.98 97.7931 181.689 51.8398 82.4335C45.1382 67.1635 35.0859 62.3917 27.4271 62.8688C10.6732 63.346 1.57831 75.2757 0.142273 87.2054C-3.68717 115.837 70.987 368.269 79.6032 397.855C80.5606 400.718 84.8687 418.374 93.9636 433.644C99.2291 442.233 105.931 449.868 114.547 453.686C142.789 467.047 168.159 448.437 174.382 433.644C185.392 408.83 201.667 329.14 244.748 329.617C268.203 329.617 280.649 354.908 297.403 387.834C315.114 422.668 333.304 464.184 348.622 490.906C349.1 491.383 349.1 491.861 349.579 492.338C356.759 504.267 366.333 519.06 385.001 520.969C411.329 523.832 425.689 508.085 433.348 496.632C434.305 495.201 435.263 493.769 435.741 492.815C469.249 437.461 498.927 382.585 557.326 272.354C607.588 177.394 639.181 117.745 646.839 98.1807C652.584 81.9564 664.072 29.4657 608.545 6.0835ZM268.682 272.831L218.899 272.354C202.145 272.354 191.614 264.719 200.231 250.404L236.132 174.054C240.44 166.419 248.099 166.419 252.407 174.054L287.829 251.358C295.967 265.674 285.436 272.831 268.682 272.831Z" fill="url(#paint0_linear)"/>
<path id="Vector_2" opacity="0.1" d="M645.882 98.6587C638.223 118.223 606.63 177.395 556.369 272.832C497.97 383.54 468.292 438.416 434.784 493.293C433.827 494.724 433.348 495.679 432.391 497.11C424.732 508.563 410.85 523.833 384.044 521.447C365.854 519.538 355.802 504.745 348.622 492.816C354.845 471.819 361.067 449.392 368.248 426.964C368.248 426.009 368.726 425.532 368.726 424.578C393.139 343.456 421.86 252.79 452.495 166.419C461.59 152.581 467.813 136.357 474.515 122.518C494.619 81.9571 508.501 28.9893 552.54 7.03867C559.72 3.69836 582.218 -5.84538 608.545 5.12993C664.072 29.4665 652.584 81.9571 645.882 98.6587Z" fill="white"/>
<g id="Group_2">
<path id="Vector_3" d="M389.788 520.492C387.873 520.492 385.958 520.492 384.043 520.015C365.854 518.106 356.759 503.79 349.1 490.906C340.484 475.636 330.91 455.594 320.858 434.121C313.199 418.374 305.54 402.626 297.881 387.356L295.966 383.539C280.17 352.522 267.724 328.185 243.79 328.185C207.889 328.185 190.657 379.721 179.168 413.602C176.296 421.714 173.903 428.395 171.988 433.166C167.68 442.71 152.841 456.549 133.215 456.549C126.992 456.549 120.291 455.117 114.068 452.254C106.887 448.914 100.186 442.233 94.4418 432.689C87.2616 420.282 90.1337 413.602 94.9205 401.672C95.3992 400.241 96.3565 398.809 96.8352 397.377C106.409 373.995 123.163 334.389 140.395 291.919C171.031 218.432 205.496 134.924 211.718 120.609C221.771 96.7492 231.344 88.1598 247.141 87.6826C247.62 87.6826 248.098 87.6826 248.577 87.6826C267.724 87.6826 276.34 100.567 286.393 126.335C309.369 186.46 415.636 436.03 429.039 465.615C433.826 477.068 437.656 485.18 430.475 496.632C420.423 512.857 407.02 520.492 389.788 520.492ZM244.269 166.896C240.439 166.896 237.567 169.282 234.695 173.099L198.794 249.926C194.486 257.561 195.443 262.333 196.879 265.674C199.751 270.923 207.889 274.263 218.42 274.263L268.203 274.74C279.212 274.74 286.871 271.877 290.222 266.628C292.137 263.765 293.094 258.516 288.786 250.881L253.364 174.054C250.97 169.282 247.62 166.896 244.269 166.896Z" fill="url(#paint1_linear)"/>
<path id="Vector_4" d="M249.534 89.5898C268.203 89.5898 275.862 101.52 285.914 127.288C308.891 187.413 415.158 436.982 428.561 466.568C433.348 478.021 436.699 485.178 429.997 496.154C419.466 511.901 406.542 519.059 390.267 519.059C388.352 519.059 386.437 519.059 384.522 518.582C367.29 516.673 358.195 502.834 350.536 489.95C341.92 474.68 332.346 454.638 322.294 433.165C314.635 417.418 306.976 401.193 299.317 386.401L297.403 382.583C281.127 351.089 268.682 326.752 244.269 326.275C207.889 326.275 190.178 378.288 178.69 412.646C175.818 420.758 173.903 427.439 171.51 432.211C167.201 441.754 153.32 454.638 134.172 454.638C127.95 454.638 121.727 453.207 115.983 450.344C108.802 447.003 102.58 440.8 96.8354 431.256C90.1339 419.326 92.5273 413.6 97.3141 401.671C97.7928 400.239 98.7501 398.807 99.2288 397.376C108.802 373.994 125.556 333.91 143.267 290.963C173.424 218.908 207.411 135.877 213.633 121.561C223.686 98.6564 232.302 90.067 248.098 89.5898C248.577 89.5898 249.056 89.5898 249.534 89.5898ZM197.358 248.971C192.571 257.083 193.529 262.809 195.444 266.149C198.794 271.876 206.932 275.216 218.42 275.216L268.203 275.693H268.682C280.17 275.693 287.829 272.353 291.18 266.626C293.094 263.286 294.53 258.037 289.744 249.448L254.8 172.62C251.928 167.849 248.098 165.463 244.269 165.463C239.961 165.463 236.131 167.849 233.738 172.62L197.358 248.971ZM249.534 86.2495C249.056 86.2495 248.577 86.2495 248.098 86.2495C230.387 86.7267 221.292 96.7476 211.24 120.13C201.666 143.035 123.163 333.433 96.3567 397.376C90.1339 412.169 85.3471 419.327 93.9633 434.119C99.2288 442.709 105.93 450.344 114.547 454.161C121.248 457.502 127.95 458.933 134.172 458.933C153.798 458.933 169.595 445.572 174.382 434.597C185.391 409.783 201.666 330.57 244.748 330.57C268.203 330.57 280.649 355.861 297.403 388.787C315.114 423.621 333.304 465.136 348.621 491.859C355.802 504.266 365.854 520.013 385.001 521.922C386.916 521.922 388.83 522.399 390.745 522.399C413.722 522.399 426.168 508.561 433.348 498.062C441.007 485.656 437.177 477.066 431.912 465.614C418.03 434.596 311.763 185.505 289.265 126.333C279.213 101.042 270.596 86.2495 249.534 86.2495ZM269.16 272.83C268.682 272.83 268.682 272.83 269.16 272.83L218.899 272.353C202.145 272.353 191.614 264.718 200.23 250.402L236.131 173.575C238.525 169.757 241.397 167.849 244.269 167.849C247.141 167.849 250.013 169.757 252.407 173.575L287.829 250.879C295.966 265.672 285.435 272.83 269.16 272.83Z" fill="white"/>
</g>
</g>
</g>
<defs>
<linearGradient id="paint0_linear" x1="-1.25788e-06" y1="261.077" x2="651.889" y2="261.077" gradientUnits="userSpaceOnUse">
<stop stop-color="#FF811C"/>
<stop offset="1" stop-color="#A855F7"/>
</linearGradient>
<linearGradient id="paint1_linear" x1="90.1082" y1="304.089" x2="434.45" y2="304.089" gradientUnits="userSpaceOnUse">
<stop stop-color="#FF811C"/>
<stop offset="1" stop-color="#A855F7"/>
</linearGradient>
</defs>
</svg>
