<?xml version="1.0" encoding="utf-8"?>
<!-- Generator: Adobe Illustrator 24.0.0, SVG Export Plug-In . SVG Version: 6.00 Build 0)  -->
<svg version="1.1" xmlns="http://www.w3.org/2000/svg" xmlns:xlink="http://www.w3.org/1999/xlink" x="0px" y="0px"
	 viewBox="0 0 128 128" style="enable-background:new 0 0 128 128;" xml:space="preserve">
<style type="text/css">
	.st0{display:none;}
	.st1{display:inline;fill:#FF811C;}
	.st2{display:inline;fill:#FF811C;stroke:#FFFFFF;stroke-width:14.074;stroke-miterlimit:10;}
	.st3{display:inline;opacity:0.15;fill:#FFFFFF;}
	.st4{display:inline;fill:#1E252B;}
	.st5{display:inline;fill:#FFFFFF;}
	.st6{display:inline;fill:#2D2E82;}
	.st7{fill:#FF811C;stroke:#FFFFFF;stroke-width:14.074;stroke-miterlimit:10;}
	.st8{opacity:0.33;fill:#35A8E0;}
	.st9{display:inline;}
	.st10{fill:#FF811C;}
	.st11{fill:#FFFFFF;}
	.st12{display:inline;fill:#35A8E0;}
	.st13{display:inline;opacity:0.1;fill:#1D70B7;}
	.st14{opacity:0.41;fill:#FF811C;}
	.st15{opacity:0.15;fill:#FFFFFF;}
	.st16{display:none;fill:#FF811C;}
	.st17{opacity:0.1;fill:#FFFFFF;}
	.st18{fill:#1E252B;}
	.st19{display:none;fill:#FFFFFF;}
	.st20{font-family:'Rubik-Regular';}
	.st21{font-size:7.0775px;}
</style>
<g id="Camada_1" class="st0">
</g>
<g id="Camada_5" class="st0">
</g>
<g id="Camada_2" class="st0">
</g>
<g id="Camada_2_cópia" class="st0">
</g>
<g id="Camada_4" class="st0">
</g>
<g id="Camada_4_cópia">
	<g>
		<path class="st10" d="M100.1,28.9c-3.6-1.5-6.7-0.2-7.6,0.2c-6,3-8,10.3-10.7,15.8c-0.9,1.9-1.8,4.1-3,6C77,53.7,74.5,56,70,56.3
			c-6.9,0.4-10.6-10.9-13.5-18.5c-1.5-4.1-3.1-5.1-5.6-5.1c-2,0-3.5,1.2-4,1.7c-4.1,3.9-5.9,20-10.8,21c-4.2,0.9-5.9-2.6-12.2-16.2
			c-0.9-2.1-2.3-2.7-3.3-2.7c-2.3,0-3.5,1.7-3.7,3.3c-0.5,4,9.7,38.7,10.9,42.7c0.1,0.4,0.7,2.8,2,4.9c0.7,1.2,1.6,2.2,2.8,2.8
			c3.9,1.8,7.3-0.7,8.2-2.7c1.5-3.4,3.7-14.3,9.6-14.3c3.2,0,4.9,3.5,7.2,8c2.4,4.7,4.9,10.5,7,14.2c0,0.1,0.1,0.1,0.1,0.2
			c1,1.7,2.3,3.7,4.8,3.9c3.6,0.4,5.6-1.8,6.6-3.3c0.1-0.2,0.2-0.4,0.4-0.6c4.6-7.6,8.6-15.1,16.6-30.3c6.9-13,11.2-21.2,12.2-23.9
			C106.1,39.3,107.6,32.1,100.1,28.9z M53.6,65.4l-6.8,0c-2.3,0-3.7-1-2.6-3l4.9-10.5c0.6-1,1.6-1,2.2,0l4.8,10.6
			C57.3,64.5,55.9,65.5,53.6,65.4z"/>
		<path class="st17" d="M105.2,41.6c-1.1,2.7-5.4,10.8-12.2,23.9c-8,15.2-12,22.7-16.6,30.3c-0.1,0.2-0.2,0.4-0.4,0.6
			c-1,1.5-3,3.7-6.6,3.3c-2.5-0.3-3.9-2.3-4.8-3.9c0.8-2.9,1.7-5.9,2.7-9c0-0.1,0.1-0.2,0.1-0.3c3.3-11.1,7.3-23.6,11.4-35.4
			c1.2-1.9,2.1-4.1,3-6c2.7-5.6,4.7-12.8,10.7-15.8c1-0.5,4.1-1.8,7.6-0.2C107.6,32.1,106.1,39.3,105.2,41.6z"/>
		<g>
			<path class="st10" d="M70.2,99.4c-0.3,0-0.5,0-0.8,0c-2.5-0.2-3.8-2.2-4.8-4c-1.2-2.1-2.5-4.9-3.9-7.8c-1-2.1-2.1-4.4-3.1-6.4
				l-0.3-0.5c-2.2-4.2-3.9-7.6-7.1-7.6c-4.9,0-7.3,7-8.8,11.7c-0.4,1.1-0.7,2-1,2.7c-0.6,1.3-2.6,3.2-5.3,3.2
				c-0.9,0-1.8-0.2-2.6-0.6c-1-0.5-1.9-1.4-2.7-2.7c-1-1.7-0.6-2.6,0.1-4.2l0.3-0.6c1.3-3.2,3.6-8.7,6-14.5
				c4.2-10.1,8.9-21.5,9.7-23.5c1.4-3.2,2.7-4.4,4.9-4.5l0.2,0c2.6,0,3.8,1.8,5.1,5.3c3.1,8.3,17.7,42.5,19.5,46.5
				c0.7,1.5,1.2,2.7,0.2,4.3C74.3,98.3,72.5,99.4,70.2,99.4L70.2,99.4z M50.3,50.9c-0.5,0-0.9,0.3-1.3,0.9l-4.9,10.5
				c-0.6,1-0.5,1.7-0.2,2.1c0.4,0.7,1.5,1.2,3,1.2c0,0,6.8,0,6.8,0c1.5,0,2.6-0.4,3-1.1c0.2-0.4,0.4-1.1-0.2-2.1l-4.8-10.6
				C51.2,51.2,50.7,50.9,50.3,50.9z"/>
			<path class="st11" d="M51,40.3c2.5,0,3.6,1.7,5,5.2c3.1,8.2,17.7,42.5,19.5,46.5c0.7,1.5,1.1,2.6,0.2,4.1
				c-1.4,2.1-3.2,3.2-5.5,3.2c-0.2,0-0.5,0-0.8,0c-2.4-0.2-3.6-2.1-4.6-3.9c-1.2-2.1-2.5-4.9-3.9-7.8c-1-2.1-2.1-4.4-3.1-6.4
				l-0.3-0.5c-2.2-4.3-3.9-7.7-7.3-7.7c-5,0-7.4,7.1-9,11.8c-0.4,1.1-0.7,2-1,2.7c-0.6,1.3-2.5,3.1-5.1,3.1c-0.8,0-1.7-0.2-2.5-0.6
				c-1-0.5-1.8-1.3-2.6-2.6c-0.9-1.6-0.6-2.4,0.1-4.1c0.1-0.2,0.2-0.4,0.3-0.6c1.3-3.2,3.6-8.7,6-14.6c4.1-10,8.8-21.4,9.7-23.4
				c1.4-3.2,2.6-4.3,4.7-4.4C50.8,40.3,50.9,40.3,51,40.3 M53.6,65.8c1.5,0,2.6-0.4,3.1-1.2c0.3-0.4,0.4-1.2-0.2-2.3l-4.8-10.6
				c-0.4-0.6-0.9-1-1.5-1c-0.6,0-1.1,0.3-1.5,1l-4.9,10.5c-0.7,1.1-0.5,1.9-0.3,2.3c0.5,0.8,1.6,1.3,3.2,1.3L53.6,65.8L53.6,65.8
				 M51,39.9c-0.1,0-0.1,0-0.2,0c-2.4,0.1-3.7,1.5-5,4.6c-1.3,3.1-12.1,29.2-15.7,38c-0.8,2-1.5,3-0.3,5c0.7,1.2,1.6,2.2,2.8,2.8
				c0.9,0.4,1.8,0.6,2.7,0.6c2.7,0,4.8-1.9,5.5-3.3c1.5-3.4,3.7-14.3,9.6-14.3c0,0,0,0,0,0c3.2,0,4.9,3.5,7.2,8
				c2.4,4.7,4.9,10.5,7,14.2c1,1.7,2.3,3.9,4.9,4.1c0.3,0,0.5,0,0.8,0c3.1,0,4.8-1.9,5.8-3.3c1-1.7,0.5-2.9-0.2-4.4
				c-1.9-4.3-16.4-38.4-19.5-46.5C55,41.9,53.8,39.9,51,39.9L51,39.9z M53.6,65.4C53.6,65.4,53.6,65.4,53.6,65.4l-6.8,0
				c-2.3,0-3.7-1-2.6-3l4.9-10.5c0.3-0.5,0.7-0.8,1.1-0.8c0.4,0,0.8,0.3,1.1,0.8l4.8,10.6C57.3,64.4,55.9,65.4,53.6,65.4L53.6,65.4z
				"/>
		</g>
		<g class="st0">
			<g class="st9">
				<path class="st11" d="M113.8,37.7c-0.1,0-0.1,0-0.1-0.1c0,0-0.1-0.1-0.1-0.1v-5.6c0-0.1,0-0.1,0.1-0.1c0,0,0.1-0.1,0.1-0.1h2.1
					c0.6,0,1.2,0.2,1.5,0.5c0.4,0.3,0.6,0.7,0.6,1.3c0,0.4-0.1,0.8-0.3,1.1c-0.2,0.3-0.5,0.5-0.9,0.6l1.3,2.3c0,0,0,0.1,0,0.1
					c0,0,0,0.1-0.1,0.1c0,0-0.1,0.1-0.1,0.1h-0.4c-0.1,0-0.2,0-0.2-0.1c0-0.1-0.1-0.1-0.1-0.2l-1.2-2.2h-1.5v2.2
					c0,0.1,0,0.1-0.1,0.1c0,0-0.1,0.1-0.1,0.1H113.8z M114.5,34.5h1.4c0.4,0,0.7-0.1,1-0.3c0.2-0.2,0.3-0.4,0.3-0.8
					c0-0.3-0.1-0.6-0.3-0.8c-0.2-0.2-0.5-0.3-1-0.3h-1.4V34.5z"/>
			</g>
			<g class="st9">
				<path class="st11" d="M115.8,29.5c2.9,0,5.2,2.3,5.2,5.2c0,2.9-2.3,5.2-5.2,5.2c-2.9,0-5.2-2.3-5.2-5.2
					C110.6,31.8,113,29.5,115.8,29.5 M115.8,28.6c-3.3,0-6,2.7-6,6s2.7,6,6,6s6-2.7,6-6S119.2,28.6,115.8,28.6L115.8,28.6z"/>
			</g>
		</g>
		<text transform="matrix(1 0 0 1 13.8864 98.2509)" class="st19 st20 st21">Work Attack</text>
	</g>
</g>
</svg>
